HIERARCHY
ROOT Hips
{
    OFFSET 0.000000 0.000000 0.000000
    CHANNELS 6 Xposition Yposition Zposition Zrotation Xrotation Yrotation
    JOINT Spine
    {
        OFFSET -0.000000 9.701283 -0.000018
        CHANNELS 3 Zrotation Xrotation Yrotation
        JOINT Spine1
        {
            OFFSET 0.000000 22.755707 -0.000008
            CHANNELS 3 Zrotation Xrotation Yrotation
            JOINT Neck
            {
                OFFSET -0.000003 20.853481 -0.000011
                CHANNELS 3 Zrotation Xrotation Yrotation
                JOINT Head
                {
                    OFFSET -0.000002 12.839990 1.902205
                    CHANNELS 3 Zrotation Xrotation Yrotation
                    End Site
                    {
                        OFFSET 0.000000 19.022141 0.000000
                    }
                }
            }
            JOINT LeftShoulder
            {
                OFFSET 3.797835 16.121201 -0.677276
                CHANNELS 3 Zrotation Xrotation Yrotation
                JOINT LeftArm
                {
                    OFFSET 11.576603 -0.000001 -0.000004
                    CHANNELS 3 Zrotation Xrotation Yrotation
                    JOINT LeftForeArm
                    {
                        OFFSET 29.906404 0.000000 0.000010
                        CHANNELS 3 Zrotation Xrotation Yrotation
                        JOINT LeftHand
                        {
                            OFFSET 24.318304 0.000009 0.000021
                            CHANNELS 3 Zrotation Xrotation Yrotation
                            JOINT LeftHandThumb1
                            {
                                OFFSET 1.987811 -2.258875 3.162444
                                CHANNELS 3 Zrotation Xrotation Yrotation
                                JOINT LeftHandThumb2
                                {
                                    OFFSET 3.002281 -0.000009 -0.000001
                                    CHANNELS 3 Zrotation Xrotation Yrotation
                                    JOINT LeftHandThumb3
                                    {
                                        OFFSET 2.566092 0.000006 0.000003
                                        CHANNELS 3 Zrotation Xrotation Yrotation
                                        End Site
                                        {
                                            OFFSET 2.440626 0.000000 0.000000
                                        }
                                    }
                                }
                            }
                            JOINT LeftHandIndex1
                            {
                                OFFSET 8.131963 0.000005 3.162438
                                CHANNELS 3 Zrotation Xrotation Yrotation
                                JOINT LeftHandIndex2
                                {
                                    OFFSET 4.517766 0.000009 0.000021
                                    CHANNELS 3 Zrotation Xrotation Yrotation
                                    JOINT LeftHandIndex3
                                    {
                                        OFFSET 2.258877 -0.000002 -0.000012
                                        CHANNELS 3 Zrotation Xrotation Yrotation
                                        End Site
                                        {
                                            OFFSET 2.148437 0.000000 0.000000
                                        }
                                    }
                                }
                            }
                            JOINT LeftHandMiddle1
                            {
                                OFFSET 8.131968 0.000007 1.048142
                                CHANNELS 3 Zrotation Xrotation Yrotation
                                JOINT LeftHandMiddle2
                                {
                                    OFFSET 4.969536 0.000008 0.000020
                                    CHANNELS 3 Zrotation Xrotation Yrotation
                                    JOINT LeftHandMiddle3
                                    {
                                        OFFSET 2.710648 -0.000006 -0.000012
                                        CHANNELS 3 Zrotation Xrotation Yrotation
                                        End Site
                                        {
                                            OFFSET 2.578118 0.000000 0.000000
                                        }
                                    }
                                }
                            }
                            JOINT LeftHandRing1
                            {
                                OFFSET 7.680190 -0.000006 -1.048131
                                CHANNELS 3 Zrotation Xrotation Yrotation
                                JOINT LeftHandRing2
                                {
                                    OFFSET 4.517766 0.000004 0.000022
                                    CHANNELS 3 Zrotation Xrotation Yrotation
                                    JOINT LeftHandRing3
                                    {
                                        OFFSET 2.258877 -0.000001 -0.000012
                                        CHANNELS 3 Zrotation Xrotation Yrotation
                                        End Site
                                        {
                                            OFFSET 2.148437 0.000000 0.000000
                                        }
                                    }
                                }
                            }
                            JOINT LeftHandPinky1
                            {
                                OFFSET 7.228415 0.000003 -3.162425
                                CHANNELS 3 Zrotation Xrotation Yrotation
                                JOINT LeftHandPinky2
                                {
                                    OFFSET 3.614197 -0.000005 -0.000017
                                    CHANNELS 3 Zrotation Xrotation Yrotation
                                    JOINT LeftHandPinky3
                                    {
                                        OFFSET 1.807099 -0.000003 -0.000008
                                        CHANNELS 3 Zrotation Xrotation Yrotation
                                        End Site
                                        {
                                            OFFSET 1.718745 0.000000 0.000000
                                        }
                                    }
                                }
                            }
                        }
                    }
                }
            }
            JOINT RightShoulder
            {
                OFFSET -3.797832 16.121197 -0.677301
                CHANNELS 3 Zrotation Xrotation Yrotation
                JOINT RightArm
                {
                    OFFSET -11.576597 0.000000 0.000019
                    CHANNELS 3 Zrotation Xrotation Yrotation
                    JOINT RightForeArm
                    {
                        OFFSET -29.906410 0.000003 -0.000011
                        CHANNELS 3 Zrotation Xrotation Yrotation
                        JOINT RightHand
                        {
                            OFFSET -24.318323 -0.000004 0.000013
                            CHANNELS 3 Zrotation Xrotation Yrotation
                            JOINT RightHandThumb1
                            {
                                OFFSET -1.987809 -2.258876 3.162430
                                CHANNELS 3 Zrotation Xrotation Yrotation
                                JOINT RightHandThumb2
                                {
                                    OFFSET -3.002287 -0.000001 -0.000003
                                    CHANNELS 3 Zrotation Xrotation Yrotation
                                    JOINT RightHandThumb3
                                    {
                                        OFFSET -2.566096 -0.000002 0.000018
                                        CHANNELS 3 Zrotation Xrotation Yrotation
                                        End Site
                                        {
                                            OFFSET -2.440626 0.000000 0.000000
                                        }
                                    }
                                }
                            }
                            JOINT RightHandIndex1
                            {
                                OFFSET -8.131954 0.000017 3.162421
                                CHANNELS 3 Zrotation Xrotation Yrotation
                                JOINT RightHandIndex2
                                {
                                    OFFSET -4.517753 0.000013 -0.000018
                                    CHANNELS 3 Zrotation Xrotation Yrotation
                                    JOINT RightHandIndex3
                                    {
                                        OFFSET -2.258884 -0.000008 0.000008
                                        CHANNELS 3 Zrotation Xrotation Yrotation
                                        End Site
                                        {
                                            OFFSET -2.148437 0.000000 0.000000
                                        }
                                    }
                                }
                            }
                            JOINT RightHandMiddle1
                            {
                                OFFSET -8.131962 -0.000003 1.048123
                                CHANNELS 3 Zrotation Xrotation Yrotation
                                JOINT RightHandMiddle2
                                {
                                    OFFSET -4.969530 0.000001 0.000001
                                    CHANNELS 3 Zrotation Xrotation Yrotation
                                    JOINT RightHandMiddle3
                                    {
                                        OFFSET -2.710646 0.000010 -0.000006
                                        CHANNELS 3 Zrotation Xrotation Yrotation
                                        End Site
                                        {
                                            OFFSET -2.578118 0.000000 0.000000
                                        }
                                    }
                                }
                            }
                            JOINT RightHandRing1
                            {
                                OFFSET -7.680185 0.000006 -1.048131
                                CHANNELS 3 Zrotation Xrotation Yrotation
                                JOINT RightHandRing2
                                {
                                    OFFSET -4.517752 0.000016 -0.000015
                                    CHANNELS 3 Zrotation Xrotation Yrotation
                                    JOINT RightHandRing3
                                    {
                                        OFFSET -2.258884 -0.000009 0.000007
                                        CHANNELS 3 Zrotation Xrotation Yrotation
                                        End Site
                                        {
                                            OFFSET -2.148437 0.000000 0.000000
                                        }
                                    }
                                }
                            }
                            JOINT RightHandPinky1
                            {
                                OFFSET -7.228407 0.000007 -3.162434
                                CHANNELS 3 Zrotation Xrotation Yrotation
                                JOINT RightHandPinky2
                                {
                                    OFFSET -3.614193 0.000010 -0.000013
                                    CHANNELS 3 Zrotation Xrotation Yrotation
                                    JOINT RightHandPinky3
                                    {
                                        OFFSET -1.807097 0.000005 -0.000006
                                        CHANNELS 3 Zrotation Xrotation Yrotation
                                        End Site
                                        {
                                            OFFSET -1.718745 0.000000 0.000000
                                        }
                                    }
                                }
                            }
                        }
                    }
                }
            }
        }
    }
    JOINT LeftUpLeg
    {
        OFFSET 9.511073 -0.000001 0.000016
        CHANNELS 3 Zrotation Xrotation Yrotation
        JOINT LeftLeg
        {
            OFFSET 0.000000 -43.875591 0.000003
            CHANNELS 3 Zrotation Xrotation Yrotation
            JOINT LeftFoot
            {
                OFFSET 0.000001 -35.354198 0.000023
                CHANNELS 3 Zrotation Xrotation Yrotation
                JOINT LeftToeBase
                {
                    OFFSET 0.000002 -6.182190 14.266592
                    CHANNELS 3 Zrotation Xrotation Yrotation
                    End Site
                    {
                        OFFSET 0.000000 0.000000 3.804428
                    }
                }
            }
        }
    }
    JOINT RightUpLeg
    {
        OFFSET -9.511073 0.000001 -0.000016
        CHANNELS 3 Zrotation Xrotation Yrotation
        JOINT RightLeg
        {
            OFFSET -0.000006 -43.875599 -0.000023
            CHANNELS 3 Zrotation Xrotation Yrotation
            JOINT RightFoot
            {
                OFFSET 0.000001 -35.354198 0.000011
                CHANNELS 3 Zrotation Xrotation Yrotation
                JOINT RightToeBase
                {
                    OFFSET 0.000004 -6.182189 14.266604
                    CHANNELS 3 Zrotation Xrotation Yrotation
                    End Site
                    {
                        OFFSET 0.000000 0.000000 3.804428
                    }
                }
            }
        }
    }
}
MOTION
Frames:    4
Frame Time:    0.002778
-22.284042    90.049347    628.203857    -1.818095    -0.815603    -178.840683    0.049780    5.148379    -2.915648    0.248900    5.148332    -2.933517    3.757618    3.441120    -14.262184    3.757619    3.441118    -14.262191    3.198312    -1.296539    -0.414929    -55.949062    18.320513    -25.135172    -40.078281    11.252676    -76.100517    -2.631408    -0.893412    10.850185    47.448212    38.866394    -34.355045    -35.000019    -0.000003    0.000002    -0.000000    0.000000    -0.000000    0.000004    10.000002    -0.000003    -0.000000    0.000000    -0.000000    -0.000000    0.000000    -0.000000    -0.000000    0.000000    -0.000000    -0.000000    0.000000    -0.000000    -0.000000    0.000000    -0.000000    -0.000000    0.000000    -0.000000    -0.000000    0.000000    -0.000000    -0.000000    0.000000    -0.000000    0.000007    -9.999996    -0.000000    -0.000000    0.000000    -0.000000    -0.000000    0.000000    -0.000000    -2.114212    -2.906646    1.638021    56.852909    -33.654945    29.282576    29.545397    19.773985    72.399048    -60.415707    20.166046    -11.355371    -47.448204    38.866386    34.355038    35.000023    -0.000001    0.000002    -0.000000    0.000000    -0.000000    0.000001    9.999986    0.000003    -0.000000    0.000000    -0.000000    -0.000000    0.000000    -0.000000    -0.000000    0.000000    -0.000000    -0.000000    0.000000    -0.000000    -0.000000    0.000000    -0.000000    -0.000000    0.000000    -0.000000    -0.000000    0.000000    -0.000000    -0.000000    0.000000    -0.000000    0.000000    -10.000002    0.000003    -0.000000    0.000000    -0.000000    -0.000000    0.000000    -0.000000    12.023273    -17.733124    -3.336131    0.000001    34.556446    -0.000001    -10.091277    -17.618990    -6.658294    0.000000    -0.118013    0.000001    -17.116899    -17.962030    -3.490134    0.000001    47.492615    0.000000    18.937334    -19.996271    -23.560070    -0.000000    -3.715514    0.000002    
-22.306650    90.051239    628.190796    -1.815962    -0.794603    -179.043182    0.051449    5.150136    -2.969723    0.257245    5.150085    -2.988197    3.777599    3.437735    -14.160187    3.777597    3.437737    -14.160185    3.198920    -1.323713    -0.418846    -55.971035    18.279661    -25.164762    -40.032726    11.293145    -76.074142    -2.634548    -0.894736    10.876372    47.448189    38.866394    -34.355038    -35.000027    -0.000004    0.000002    -0.000000    0.000000    -0.000000    -0.000003    9.999990    -0.000001    -0.000000    0.000000    -0.000000    -0.000000    0.000000    -0.000000    -0.000000    0.000000    -0.000000    -0.000000    0.000000    -0.000000    -0.000000    0.000000    -0.000000    -0.000000    0.000000    -0.000000    -0.000000    0.000000    -0.000000    -0.000000    0.000000    -0.000000    -0.000001    -9.999998    0.000010    -0.000000    0.000000    -0.000000    -0.000000    0.000000    -0.000000    -2.130599    -2.873915    1.602559    56.706741    -33.497463    28.926729    29.446022    19.731325    72.316086    -60.713573    20.211018    -11.245429    -47.448208    38.866402    34.355045    35.000015    -0.000001    0.000002    -0.000000    0.000000    -0.000000    -0.000001    9.999991    0.000002    -0.000000    0.000000    -0.000000    -0.000000    0.000000    -0.000000    -0.000000    0.000000    -0.000000    -0.000000    0.000000    -0.000000    -0.000000    0.000000    -0.000000    -0.000000    0.000000    -0.000000    -0.000000    0.000000    -0.000000    -0.000000    0.000000    -0.000000    -0.000004    -9.999998    -0.000001    -0.000000    0.000000    -0.000000    -0.000000    0.000000    -0.000000    12.021928    -17.642458    -3.331188    -0.000002    34.579391    0.000002    -10.104780    -17.698032    -6.495077    -0.000000    -0.115149    -0.000000    -17.133574    -17.995573    -3.484550    -0.000000    47.455097    -0.000002    18.885490    -19.909544    -23.401789    0.000000    -3.714750    0.000003    
-22.330582    90.054085    628.179810    -1.814156    -0.774440    -179.250229    0.053360    5.150734    -3.025529    0.266796    5.150681    -3.044692    3.795640    3.439938    -14.062746    3.795642    3.439940    -14.062751    3.198627    -1.343572    -0.429757    -56.000732    18.222780    -25.189318    -39.971020    11.340476    -76.032570    -2.674602    -0.903073    10.904801    47.448200    38.866394    -34.355042    -35.000023    0.000002    -0.000003    -0.000000    0.000000    -0.000000    -0.000000    9.999993    -0.000000    -0.000000    0.000000    -0.000000    -0.000000    0.000000    -0.000000    -0.000000    0.000000    -0.000000    -0.000000    0.000000    -0.000000    -0.000000    0.000000    -0.000000    -0.000000    0.000000    -0.000000    -0.000000    0.000000    -0.000000    -0.000000    0.000000    -0.000000    -0.000002    -9.999997    -0.000004    -0.000000    0.000000    -0.000000    -0.000000    0.000000    -0.000000    -2.130482    -2.848534    1.582585    56.580498    -33.318527    28.573471    29.445177    19.711662    72.179085    -60.804180    20.228102    -11.213568    -47.448204    38.866394    34.355030    35.000015    -0.000001    0.000001    -0.000000    0.000000    -0.000000    -0.000003    9.999988    0.000001    -0.000000    0.000000    -0.000000    -0.000000    0.000000    -0.000000    -0.000000    0.000000    -0.000000    -0.000000    0.000000    -0.000000    -0.000000    0.000000    -0.000000    -0.000000    0.000000    -0.000000    -0.000000    0.000000    -0.000000    -0.000000    0.000000    -0.000000    -0.000001    -9.999994    0.000000    -0.000000    0.000000    -0.000000    -0.000000    0.000000    -0.000000    12.018674    -17.553085    -3.326817    -0.000000    34.602840    0.000000    -10.115165    -17.775047    -6.326724    -0.000000    -0.110809    0.000001    -17.152674    -18.030994    -3.478554    0.000001    47.413891    -0.000001    18.845680    -19.822777    -23.236938    0.000000    -3.710994    0.000001    
-22.356010    90.059036    628.166626    -1.814225    -0.756168    -179.462387    0.054602    5.149104    -3.086676    0.273010    5.149048    -3.106278    3.816015    3.445739    -13.961573    3.816015    3.445735    -13.961576    3.197850    -1.353288    -0.447026    -56.035995    18.178415    -25.215204    -39.944214    11.385010    -76.002998    -2.731217    -0.913152    10.894864    47.448223    38.866405    -34.355068    -35.000015    0.000001    -0.000002    -0.000000    0.000000    -0.000000    0.000000    10.000000    -0.000003    -0.000000    0.000000    -0.000000    -0.000000    0.000000    -0.000000    -0.000000    0.000000    -0.000000    -0.000000    0.000000    -0.000000    -0.000000    0.000000    -0.000000    -0.000000    0.000000    -0.000000    -0.000000    0.000000    -0.000000    -0.000000    0.000000    -0.000000    -0.000001    -9.999977    -0.000013    -0.000000    0.000000    -0.000000    -0.000000    0.000000    -0.000000    -2.148605    -2.818349    1.553215    56.447670    -33.138466    28.215931    29.533628    19.694717    72.020721    -60.778515    20.221985    -11.222116    -47.448193    38.866386    34.355030    35.000023    -0.000000    0.000004    -0.000000    0.000000    -0.000000    0.000000    9.999984    0.000002    -0.000000    0.000000    -0.000000    -0.000000    0.000000    -0.000000    -0.000000    0.000000    -0.000000    -0.000000    0.000000    -0.000000    -0.000000    0.000000    -0.000000    -0.000000    0.000000    -0.000000    -0.000000    0.000000    -0.000000    -0.000000    0.000000    -0.000000    0.000001    -9.999997    0.000003    -0.000000    0.000000    -0.000000    -0.000000    0.000000    -0.000000    12.012493    -17.460470    -3.317197    0.000002    34.623390    -0.000001    -10.121121    -17.850348    -6.154354    0.000000    -0.108885    0.000000    -17.166340    -18.069399    -3.457457    0.000002    47.369064    -0.000001    18.794222    -19.732975    -23.090658    -0.000000    -3.707288    0.000005    
